<?xml version="1.0" encoding="utf-8"?>
<!-- Generator: Adobe Illustrator 26.3.1, SVG Export Plug-In . SVG Version: 6.00 Build 0)  -->
<svg version="1.1" id="Layer_1" xmlns="http://www.w3.org/2000/svg" xmlns:xlink="http://www.w3.org/1999/xlink" x="0px" y="0px"
	 viewBox="0 0 564.5 1000" style="enable-background:new 0 0 564.5 1000;" xml:space="preserve">
<style type="text/css">
	.st0{fill:#FFFFFF;}
</style>
<g>
	<path class="st0" d="M311.1,873.8l11.3,11.3l0.3-45.6l-14,16.4l-4.3-32l16.3-46.5l10.7,53.6l1.1-92.5l-30.5,4l-1.2,9.9l-32.4,16.5
		l2.5,73.6l-6,54.9l-9.9-27.9l11.3-116.4L228,768.8l2.4,12l-38,10.8l2.8-12.8l-47.2,11.8l17.4,81.2l-6.9,70.1l-12.1-30.5l1.6-109.7
		L110,820.2l9.9,28.7l-23.1,89l-12.1,13.1l-24-57.1l13-66.8l20.6,57.4l7.5-65.7l-49.1-2.1l-24.1,81.8l32.4,72.4l40.5-1.3l13.2-58.1
		l18-7.5l1.6,9l-14.7,58.5l37-10l-1.9,19.4l28.2-8.6l18.5,6.7l3.2-83.9l-18.2,67.6L176,926.2l1.6-67.6l14.8-66.8l5.1,33l-17.4,92
		l14.7-7l3.5-31.7l18.8-7.8l1.6,6.5l-7,93.8l31.6-11l-1.6,15.5l35.4-5.6L275.3,857l24.6-97l-8.5,69.6l-8.1,154.7l46.1-15.9L333,877
		l-14,56.2L311.1,873.8z M117.7,899.2l8.1-35.8l5.6,32.4L117.7,899.2z M199.5,866.5l5.2-47l10.6,43.4L199.5,866.5z M244.4,948.4
		l-17.5-75.1l5.3-83.6l18.8,94L244.4,948.4z M483.2,752.3l34.6,53.7l-2.5-89.4L483,734.3l-19.8,37.5l2.1,56.9l41.3,85.7l-2.1,42.4
		l-32.4-79.1l-3.7,67.5l-14.8-88.6l8.8-126.1l-73.9,7.9l24,23.9l-4.6,93.3l-11.8,49.5l-12.7-38l-16.1-1.5l38-47.3l-6.2-60.8
		l-14.6-6.6l-16.2,6.9l2.2-17.1l-34.5,11.3l6.2,104.4l-5.1,109.6l39.4,0.2l-18.1-91.3l17.9,15.3l14.1,88.6L438,1000l-34.2-72.7
		l-1.4-4.2l21.8-4.2l-8.5-58.9l12.3,7l14.8-5.2l-19.6,105.3l44.8-12l-1.4,25.9l37.1-5.6l33-51.1l2.1-34.4l-39.7-78.1L483.2,752.3z
		 M355.3,858.6l11.8-91.3l4.9-0.8l2.3,63.1l-12.3,25.3L355.3,858.6z M415.2,854.3l14.9-71.7l11.9,72.2l-12-10.7L415.2,854.3z
		 M72.1,629l-4.2,63.5l29.4,19.9l10.7-27.2l-12.2-84.8l-31.2-8l-30.6,53.9l16.5-153.1l31.2,52l49.9,23.9l38.9,146.6l-20.8,68.3
		l-45,18.7l-53.6-8L9.8,733.6L72.1,629z M187,732.1l-42.2-158.3l82.4,26.6L185.8,658l20.2,86.3l29.4-21.7l-33.4-49l2.8-22l32.8-47.5
		l63.4-0.3l-20.2,45.3l7.7,36.7l-24.2,51.7l-86.9,37.7L187,732.1z M356.6,688.8l4.6,6.8l-17.4,36l-3.4,6.9l59.9-13.9l9.4-56.5
		l-17-50.2l3.5-35.3L383,596.9l-66.2,5.2l-24.9,45.7l4.5,44l-15.9,47.5l55.2-10.8l-11.2-22L356.6,688.8z M321.7,637.1l25.4,37.7
		l-30.3,8.5l-3.5-35.8L321.7,637.1z M420.8,665.5l-18.5-54.6l2.2-30.3l58.2-26.3l35.3,67.4l16.9,19.1l-6.7-53.9L463.1,545l77.5-55.1
		l-14.8,206.5l-46.3,17l-59.8-105.2l5.9,39.9l37.7,60.8l-52.3,12.8L420.8,665.5z"/>
	<g>
		<polygon class="st0" points="286.6,84.3 284.6,83.5 272.9,86.4 272.9,94.1 283.2,94.9 		"/>
		<polygon class="st0" points="282.1,193.1 271.3,224.4 281.4,227.5 291.5,211.2 		"/>
		<polygon class="st0" points="231.4,444.9 241.1,444.4 246.9,450.3 256.4,466.9 259.7,465.3 253.5,444.4 245.4,434.9 233.4,436.9 
					"/>
		<polygon class="st0" points="252.3,107.2 254.7,97.6 258.6,96.5 265.5,104.2 269.7,103.6 266.3,82.4 255.3,80.7 249.7,91.3 
			234.5,94 233.5,101.6 242.2,109 		"/>
		<path class="st0" d="M250,483.4l-1.1,13.9l6.2,27.2l4.4,5.9l4.8-0.7l-0.7-18l6.2,27.2l7.8,1.2l-4.1-24.6l16.2,34l17.6,5
			l-11.2-24.2l18.9,20.1l12.3,1.4l12.6-16.7l-19.6-8.2l-2.3-20.3l5.7,3l5.3-6l16.5,1.2l1.4-10.3l10.3-3.7l3-21.9l-13.3-27.6
			l-25.6-12.1l-23.5,23.1l-10.1,2.3l-21.3,13.7l-11.6,6L250,483.4z M259,477.9l21.1-2.2l9.9-14.6l12.7-1.5l18.5-23.6l24.1,13.1
			l-7,28.2l-14.3-1.5l-3.1,20.4l-12.7,18.4l-14.8-1.7l-7.8-15.1l-10.9,3.4l-19.2-12.9L259,477.9z"/>
		<polygon class="st0" points="239.1,450.3 222.5,452 219.3,462.7 247.2,476.5 252.1,469.1 		"/>
		<polygon class="st0" points="204.8,470.7 202.5,486.1 211.9,497.4 244.4,496.5 244.4,489.3 246.1,483.8 217.9,466.1 		"/>
		<polygon class="st0" points="329.9,513.8 325.1,514.6 350.4,532.3 374.6,556.6 380.4,550.2 356.3,530.2 		"/>
		<polygon class="st0" points="330.9,510.3 359.7,526.6 386.3,549.8 391.1,550 392.8,547 365.9,523.7 335.5,509.1 		"/>
		<polygon class="st0" points="327.8,521.3 327.5,525.1 342.7,532.8 364.9,561.3 370,556.4 345.6,530.8 		"/>
		<polygon class="st0" points="340.7,166.9 330.3,149.7 323.7,174.9 334,185.3 		"/>
		<polygon class="st0" points="351.1,248 351.8,241 342,236.1 346.8,249.1 		"/>
		<polygon class="st0" points="360.2,228.6 359.6,223.3 365.1,210.1 360.6,197.8 352,217.6 354,221.5 353.5,236.7 356.1,240.5 
			355,248.1 353.3,254.4 346.7,254 344.1,255.2 342.3,261 334.1,262.6 330.3,264.4 327.2,269.2 322,267.7 318.2,270.7 305.5,272.9 
			287,246.2 282.5,249.1 304.1,285.1 319,286.7 365.3,254.7 365.1,241.7 		"/>
		<polygon class="st0" points="311.1,257.4 311.9,266.2 318.9,264.1 316.6,254.2 313.2,254.1 		"/>
		<path class="st0" d="M564.5,351.8l-2-88.3l-11.3-16.2l4.9-27.1l-37.5-58.6l-4.7-33L502.2,108l-21.6-10.3l-36.3-43.2l-52.5-11.3
			l-36.3-29L269.1,0l-84.9,22.6l-11.3,11.8l-23.1,2.5L84.1,87.3l-23.6,47.1l-20.3,11.9l-28.7,60.7L0,266.6l8.2,95.2l30.6,82.3
			l52.3,79.7l25.4,10.7l24.6,18.2l70.2,23.4l41.7,10.1l36.7,4.4l84.1-8.9l20.2-13.3l25.6-9.1l26-17.2l41.7-34.3l42.2-41.7l33.4-85.9
			l-4.4-16.7L564.5,351.8z M554.4,339.2l-12.6-27l11.5-24.6L554.4,339.2z M151.3,42.9l17.9,2.8l-7.7,21.2L105,76.7L151.3,42.9z
			 M7.1,269.8l20,17.2L9.5,306.2L7.1,269.8z M96.7,514.8l-51.1-74.2l-2.8-50.3L12,355.5l-0.4-35.3l25.9-32.4l-27.2-32.4l3.6-29.2
			l82.8,55l0.3,4.6l-8.5,4.9l-10.5,24.7l2.8,22.7l-7.7,19l9.3,15l-5.3,8.5l5.3,24.3l14.2,17l10.1,24.3l15.4,4.1l38.5-7.7l22.7-21.5
			l0.4-21.9l18.6-19l7.3,34.5l-21.1,25.5l6.5,10.9l-16.6,31.6l6.9,28.8l-17.8,38.9L96.7,514.8z M128.1,304.1l7.3-8.9l-0.3-10.4
			l10.6-17.4l12.8-3l-0.7,20.4l-8.3,7.4l-2.8,18.8l7.9-3.7l0.2-14.3l11.6-18l7.3,1.1l1.5,10.5l-7.5,15.5l-0.9,14.1l14.3-28.5
			l5.8,12.5l-7.6,24.8l-10,8.3l-0.4,13.7l-8.1,15.8l-30.9,10.5l-13.9-60.4l-15.3,12.5l-0.1-24.4l19.1-14l0.1-15.6l9.1-8.9l7.3,3.4
			l-10.1,33.1L128.1,304.1z M183.4,371.1l21.1-28.5l-1.4,29.8l-22.9,13.4L183.4,371.1z M178.4,337.5l9.7-15.8l8.5,2.9l7.1-0.8
			L190,347.4L178.4,337.5z M181.4,265.9l10.3-16l24.6,2.1l-1.1,2.4L181.4,265.9z M164.5,367.8l-6.8,16.8l-26.7,10.1l-28-3.5
			l7.3-15.8l29.9,5.3L164.5,367.8z M107.2,288.7l-5.7-1.5l-1.8-6.6l5.1-11.2l10.7-0.1L107.2,288.7z M127.4,403.2l26.6,25.2
			l13.9-43.4l8.5,26l-20.6,25.9l-15.8-3.9l-21,10.2l-14.3-26.8l-6.4-7.8L127.4,403.2z M510.1,470.3l-20.4,17.4l0.6-33.3l33.1-12.7
			L510.1,470.3z M533.3,421.5L477,448.7l1.2,49.6l-30.4,28.2l-19.5-33.4l23.2-21.8l-2.7-10.6l12.2-6l2.3-31.7l11.8-12.7l9.4-19.5
			l-2.3-34.3l9.4-21.7l-5.6-44.2l-20.6-30.3l-30.2-3.6l-6.3-8.7l-20.2,2.9l1.8-10.7l-30.7-12.4l-2.6,3.8l-10.7-2.4l6.2,19.2
			l-5.6,32.6l-56.3,28.9l-25.2-13.6l-8.5-43.1l-3.3,2.3l-17.2-1.2l-21.2,57l6,18.2l5.5-12.2l76.5,28.2l26.5-6.7l11,20.7l10.2-60.2
			l9.2-61.7l20.5,8.2l-13.2,43.2l2.5,59l9-22.7l-4-11.7l11.2-43.2l10,59.1l-10.7,9.4l-19.8,37.7v22.2l-15,1.1L332,426.2l9.1,4
			l28.4-19.5l24.4,5.4l-35.3,25.2l9.9,19.5l-1.1,22.5l50.3,10.4l20.3,41.2l-32.7,22.2l-12.6,1.1l-14.7,12.6l-105.5,12.6l-36.7-16.6
			l-54.6-5.9l15.5-45l-6.9-35.3l15.2-25.7l-2.6-8.3l19.3-31.4l-7.9-26.6L216,306l25.2-63.8l8.5,1.8l-3.9-8.8l-10.6,1.6l-5.8,10.2
			l-34.9-5.1l-15,8.5l-11.8,18.9l-2.3-7.2l-9.2-3.9l-11.8,4.6l-6-5.3l-15.5,0.5l-4.2,7.4l-5.5-2.8l-7.2,0.9l6.5-16.6L64,212.7
			l-41.1-13.2l23.8-53.2l22.9-15.3l18.1-39.7l77.4-16.3l22.3-48.4l75.2-20.2l33.8,11.9l53.2-1.2l38.3,32.5l46.6,7.2l37.9,47.7
			l21,4.5l10.4,13.7l4.1,37.5l39.7,57.9l-11.9,22.3l16.7,20.8L530.7,310l24.3,61.8L533.3,421.5z M407.1,408.6l1.9-4.6l42.8,11.2
			l4.4,34l-13.8,6.5l-10.4,25l-54.1-2.9l5.6-18.9l37.7-4.4l9.9-17.3L407.1,408.6z M426.6,331.8l36.9,16.5l20.6-11.9l0.9,4.1
			l-9.3,17.5l0.4,32.7l-14.7,13.2l-10.2-42.9l-25.4-23.8L426.6,331.8z M415.5,269l9.7-11.7l6.9,8.2l28.8,0.4l17.6,29.5l-19.1,18.4
			L415.5,269z"/>
		<path class="st0" d="M305.6,264.5l1.6-11l3.7-5l3.9,1.1l0.3-3.2l6.5-3.3l3.3,1l1.5,3.6l0.8-8.3l2.1-2.1l6.5,0.9l3.1,3.8l-0.9-7.6
			l3.5-3l3.9,0.8l3.3,1.8l-3.6-19.4l18.4-29.9l-14.3-39.5l3.5-15.2l-5.1-8.4l-6.2,0.8l-2.8-3.6l3.8-6.7l-1.7-9.4l-14.8-4.4l-1.7-4.2
			l5.6-8.7l-2.9-8.4L305,79.4l-2.2-3.2l1.8-5.6l-4.7-6.2l-18.8,8.5l-4-1.5l0.5-8.7L258.4,63l-16.8,16.9l-8.3-8.8l-8.4,3.7l-6.6,21.1
			l-10.6-0.5l-6.2,7.3l1.2,13.2l2.4,7l-8.3-0.8l-6,8.6l4.6,11.3l-7.7,3.5l-2.3,12.5l8.9,12l-3.6,7l1.6,8.8l10.1,5.5l-1,9.1l4.7,6.2
			l11.3-3.1l3-2.2l7.4,16.5l15.6-0.6l12.3,31.1l17.1,1.1l16.4-9.8L305.6,264.5z M309.1,231.5l0.8-26.2l22.1,11.5L309.1,231.5z
			 M227.4,162.7l-14,11l1.2,8.9l9.8,1.9l-0.4,11.6l-15.7,0.7l-0.3-7.6l-10.6-9.2l1.6-14.3l-8.2-9.4l2.5-9.4l7.8,0.4l-3.4-11.2
			l4.4-7.5l7.1-1l-0.8-8l2.4-3.4l-4.3-7.2l6.7-7.2l9.9-0.4l3.6-20.4l6.2-2.1l10.4,6.6l16.5-16.4l12.4-2l1.9,9.9l11.5,0.3l7.3-4.3
			l9,12.2l19.5-1.6l0.9,3.5l-3.5,6.5l1.2,8.6l18.3,3.8l-1.8,8.3l-9.1-3.2l-5.9,4.7l-5.6-6l-3.2,2l2.6,10.3l-7.2,7.6l-3.1-0.4
			l-3.7-13l-11.2,12l-2.5-9.6l-16.1,0.3l-6.6,7.8l-12.3-0.2l-0.8,17l-13,11.4l-13.6-2.6l-0.8,6.8L227.4,162.7z M257.2,226.4
			l-8.1-12.8l-19.2-0.4l-1.5-7.8l16.3-3l38.9-18.5l0.8-4l10.8-5.2l3.7,1.9l29.6-34.1l16.1-14.2l2.4,3.7l-7.5,22l5.3,12.6l-4.1,21.3
			l-4.4,5.7l-22.8,0.8l-13-11l-12.4,9.1l7.8,20.1l-13.2,20.4L257.2,226.4z"/>
		<polygon class="st0" points="320.2,247.3 319.1,249.5 323.8,261.6 330.5,257.7 323.2,248.7 		"/>
		<polygon class="st0" points="340.4,255.8 342.1,251.9 335.4,242.5 330.9,242.3 330.2,247.4 335.7,257.1 		"/>
	</g>
</g>
</svg>
