<?xml version="1.0" encoding="utf-8"?>
<!-- Generator: Adobe Illustrator 26.2.1, SVG Export Plug-In . SVG Version: 6.00 Build 0)  -->
<svg version="1.1" id="Layer_1" xmlns="http://www.w3.org/2000/svg" xmlns:xlink="http://www.w3.org/1999/xlink" x="0px" y="0px"
	 viewBox="0 0 1080 1080" style="enable-background:new 0 0 1080 1080;" xml:space="preserve">
<style type="text/css">
	.st0{fill:#FFFFFF;}
</style>
<g>
	<g>
		<polygon class="st0" points="561.9,169.7 553.8,166.2 505.8,178.3 505.8,209.7 547.8,212.8 		"/>
	</g>
	<g>
		<polygon class="st0" points="543.3,615.3 499.4,743.8 540.6,756.2 581.8,689.5 		"/>
	</g>
	<g>
		<polygon class="st0" points="421.2,263.4 431.1,223.9 447.1,219.6 475.5,251.1 492.7,248.6 478.5,161.7 433.5,154.9 410.7,198 
			348.5,209.1 344.2,240.6 379.9,270.8 		"/>
	</g>
	<g>
		<polygon class="st0" points="783.4,507.9 741.2,437.5 714,541 756.3,583.3 		"/>
	</g>
	<g>
		<polygon class="st0" points="826.4,840.4 829.1,811.8 788.9,791.6 808.5,845.1 		"/>
	</g>
	<g>
		<polygon class="st0" points="883.7,814.5 863.5,760.7 861,739 883.7,685.2 865.3,634.8 829.8,716 838,731.9 835.9,794.2 
			846.5,809.7 842,840.7 835.1,866.8 808.2,865.2 797.6,870.1 790.3,893.7 756.4,900.2 740.9,907.6 728.3,927.1 707.1,921 
			691.3,933.4 639.5,942.3 563.7,833.1 545.3,845.1 633.6,992.6 694.8,999 884.2,867.8 		"/>
	</g>
	<g>
		<polygon class="st0" points="662.2,879 665.6,914.9 694.5,906.2 684.8,866 670.9,865.5 		"/>
	</g>
	<g>
		<path class="st0" d="M639.9,908l6.6-44.9l15-20.6l16.1,4.5l1.3-13.2l26.8-13.6l13.6,4.2l5.9,14.9l3.4-34l8.5-8.5l26.8,3.8
			l12.7,15.7l-3.8-31l14.4-12.3l16.1,3.4l13.6,7.2L802,704.1l75.2-122.4l-58.4-161.8l14.2-62.1l-20.8-34.6l-25.3,3.1l-11.5-14.6
			l15.5-27.5l-7.1-38.6L723,227.4l-7.1-17.3l23.1-35.5l-11.8-34.4l-89.8,9.2l-9.2-13.1l7.4-23.1L616.5,88l-77.1,34.9l-16.6-6.1
			l2.2-35.7l-78.4,1.3l-68.9,69.3l-34-36.2l-34.4,15.3l-26.9,86.6l-43.4-2.1l-25.4,30.1l4.7,54.2l9.9,28.8l-34-3.4l-24.5,35.2
			l18.9,46.4l-31.4,14.2l-9.5,51.2l36.6,49.2L169.4,550l6.4,36.2l41.5,22.4l-4.3,37.3l19.2,25.6l46.3-12.8l12.2-9.1l30.4,67.6
			l64-2.7l50.5,127.3l70.2,4.7l67.4-40.2L639.9,908z M654.3,772.6l3.4-107.4l90.7,47L654.3,772.6z M319.4,490.9l-57.5,45.3l5,36.7
			l40.3,7.9l-1.4,47.4l-64.4,2.8l-1.3-31.3l-43.6-37.8l6.5-58.4l-33.5-38.6l10.1-38.6l32.1,1.8l-13.8-45.9l17.9-30.8l28.9-4.1
			l-3.2-32.6l9.6-13.8l-17.4-29.4l27.5-29.4l40.4-1.8l14.7-83.6l25.2-8.7l42.7,27.1l67.5-67l51-8.3l7.8,40.4l47.3,1.4l29.8-17.4
			l36.7,50l79.9-6.4l3.7,14.2l-14.2,26.6l4.8,35.1l74.8,15.6l-7.3,34L728.8,280l-24.3,19.3l-23-24.8l-13.3,8.3l10.6,42.2l-29.4,31.2
			l-12.9-1.8l-15.1-53.3l-45.9,49.1l-10.1-39.5l-66.1,1.4l-27.1,32.1l-50.5-0.9l-3.2,69.8L365.2,460l-55.5-10.6l-3.2,28L319.4,490.9
			z M441.4,751.9l-33.1-52.6l-78.6-1.6l-6-32l66.7-12.5l159.4-75.9l3.3-16.3l44.5-21.1l15.2,7.6l121.4-139.9l66.1-58l9.8,15.2
			l-30.9,90l21.7,51.5L784,593.6l-17.9,23.3l-93.2,3.3l-53.1-45l-51,37.4l32,82.4l-54.2,83.5L441.4,751.9z"/>
	</g>
	<g>
		<polygon class="st0" points="699.5,837.4 695.1,846.7 714.4,896.3 742,880.3 712.1,843.4 		"/>
	</g>
	<g>
		<polygon class="st0" points="782.2,872.3 789.2,856.4 761.9,817.8 743.3,817.2 740.7,837.8 762.9,877.6 		"/>
	</g>
</g>
</svg>
